<?xml version="1.0" encoding="UTF-8" standalone="no"?>
<!DOCTYPE svg PUBLIC "-//W3C//DTD SVG 1.1//EN" "http://www.w3.org/Graphics/SVG/1.1/DTD/svg11.dtd">
<svg version="1.1" xmlns="http://www.w3.org/2000/svg" xmlns:xlink="http://www.w3.org/1999/xlink" preserveAspectRatio="xMidYMid meet" viewBox="0 0 1920 1080" width="1920" height="1080"><defs><path d="M0 0L1920 0L1920 1080L0 1080L0 0Z" id="aRgBP7kNg"></path><path d="M1217 540C1217 681.84 1101.84 797 960 797C818.16 797 703 681.84 703 540C703 398.16 818.16 283 960 283C1101.84 283 1217 398.16 1217 540Z" id="c1LOalS4QT"></path><path d="M983.22 365C998.01 365 1010 377 1010 391.79C1010 456.43 1010 623.57 1010 688.22C1010 703.01 998.01 715 983.22 715C968.57 715 951.43 715 936.79 715C921.99 715 910 703.01 910 688.22C910 623.57 910 456.43 910 391.79C910 377 921.99 365 936.79 365C951.43 365 968.57 365 983.22 365Z" id="j10euRJTgX"></path><path d="M785 516.79C785 501.99 796.99 490 811.79 490C876.43 490 1043.57 490 1108.21 490C1123.01 490 1135 501.99 1135 516.79C1135 531.43 1135 548.57 1135 563.21C1135 578.01 1123.01 590 1108.21 590C1043.57 590 876.43 590 811.79 590C796.99 590 785 578.01 785 563.21C785 548.57 785 531.43 785 516.79Z" id="ep9jJJ0lw"></path></defs><g><g><g><use xlink:href="#aRgBP7kNg" opacity="1" fill="#bcbcbc" fill-opacity="0.2"></use></g><g><use xlink:href="#c1LOalS4QT" opacity="1" fill="#a9a9a9" fill-opacity="1"></use></g><g><use xlink:href="#j10euRJTgX" opacity="1" fill="#d0d0d0" fill-opacity="1"></use></g><g><use xlink:href="#ep9jJJ0lw" opacity="1" fill="#d0d0d0" fill-opacity="1"></use></g></g></g></svg>