<?xml version="1.0" encoding="UTF-8" standalone="no"?>
<!DOCTYPE svg PUBLIC "-//W3C//DTD SVG 1.1//EN" "http://www.w3.org/Graphics/SVG/1.1/DTD/svg11.dtd">
<svg version="1.1" xmlns="http://www.w3.org/2000/svg" xmlns:xlink="http://www.w3.org/1999/xlink" preserveAspectRatio="xMidYMid meet" viewBox="0 0 500 500" width="500" height="500"><defs><path d="M500 250C500 387.98 387.98 500 250 500C112.02 500 0 387.98 0 250C0 112.02 112.02 0 250 0C387.98 0 500 112.02 500 250Z" id="cwtiSEkHj"></path><path d="M381.52 327.48C387.62 333.59 387.62 343.48 381.52 349.58C372.92 358.18 358.18 372.92 349.58 381.52C343.48 387.62 333.59 387.62 327.48 381.52C283.47 337.51 162.49 216.53 118.48 172.52C112.38 166.41 112.38 156.52 118.48 150.42C127.08 141.82 141.82 127.08 150.42 118.48C156.52 112.38 166.41 112.38 172.52 118.48C216.53 162.49 337.51 283.47 381.52 327.48Z" id="c2AIJgDji"></path><path d="M327.48 118.48C333.59 112.38 343.48 112.38 349.58 118.48C358.18 127.08 372.92 141.82 381.52 150.42C387.62 156.52 387.62 166.41 381.52 172.52C337.51 216.53 216.53 337.51 172.52 381.52C166.41 387.62 156.52 387.62 150.42 381.52C141.82 372.92 127.08 358.18 118.48 349.58C112.38 343.48 112.38 333.59 118.48 327.48C162.49 283.47 283.47 162.49 327.48 118.48Z" id="b2uVL4lyKL"></path></defs><g><g><g><use xlink:href="#cwtiSEkHj" opacity="1" fill="#d43d3d" fill-opacity="1"></use></g><g><use xlink:href="#c2AIJgDji" opacity="1" fill="#9b9b9b" fill-opacity="1"></use></g><g><use xlink:href="#b2uVL4lyKL" opacity="1" fill="#9b9b9b" fill-opacity="1"></use></g></g></g></svg>